<svg width="259" height="244" viewBox="0 0 259 244" fill="none" xmlns="http://www.w3.org/2000/svg">
<g filter="url(#filter0_d)">
<path d="M222.095 118.413L222.097 118.415C224.214 120.12 224.523 123.211 222.814 125.311L152.578 211.63C150.87 213.729 147.788 214.046 145.69 212.338L4.90842 97.7863C2.80951 96.0784 2.49298 92.9972 4.20084 90.8983L74.4376 4.57911C76.1455 2.48019 79.2267 2.16367 81.3256 3.87153L222.095 118.413Z" fill="#3FD387" stroke="#41BC7B"/>
<path opacity="0.15" d="M79.968 2.3667C77.928 1.72386 75.6139 2.34292 74.1799 4.10529L38.8474 47.528L58.6976 141.955L118.337 190.482L171.837 188.755L213.254 137.854L109.159 141.212L79.968 2.3667Z" fill="#EEEEEE"/>
<path opacity="0.15" d="M3.81301 90.5827C1.93087 92.8958 2.27974 96.292 4.59284 98.1741L37.1109 124.634L13.7216 78.4052L3.81301 90.5827Z" fill="#EEEEEE"/>
<path d="M107.911 108.869L118.608 117.573L116.088 120.669L114.522 119.395C114.806 120.196 114.876 120.985 114.721 121.774C114.567 122.564 114.216 123.296 113.648 123.993C112.563 125.327 111.379 126.032 110.095 126.085C108.81 126.139 107.415 125.553 105.91 124.328L99.5337 119.14L102.123 115.958L108.56 121.196C109.858 122.252 110.954 122.229 111.861 121.115C112.398 120.454 112.616 119.736 112.492 118.964C112.368 118.192 111.95 117.506 111.215 116.908L105.28 112.078L107.899 108.859L107.911 108.869Z" fill="white"/>
<path d="M112.937 92.7182L128.517 105.395L125.957 108.541L124.378 107.256C124.67 108.022 124.72 108.836 124.548 109.672C124.376 110.509 123.987 111.311 123.38 112.058C122.633 112.976 121.743 113.594 120.678 113.928C119.626 114.272 118.505 114.275 117.332 113.992C116.146 113.698 115.02 113.107 113.919 112.211C112.817 111.315 112.01 110.332 111.506 109.251C111.002 108.17 110.802 107.092 110.914 106.003C111.039 104.925 111.474 103.916 112.231 102.986C112.818 102.264 113.493 101.735 114.277 101.396C115.061 101.058 115.855 100.931 116.653 101.051L110.338 95.9125L112.937 92.7182ZM122.367 106.678C122.168 105.823 121.564 104.966 120.548 104.139C119.544 103.322 118.594 102.915 117.707 102.906C116.82 102.896 116.063 103.276 115.435 104.047C114.798 104.831 114.569 105.662 114.749 106.54C114.929 107.419 115.519 108.245 116.498 109.041C117.514 109.868 118.476 110.285 119.375 110.305C120.285 110.312 121.064 109.929 121.701 109.146C122.339 108.363 122.557 107.544 122.367 106.678Z" fill="white"/>
<path d="M127.718 84.5257L138.415 93.2293L135.855 96.3747L134.276 95.09C134.568 95.8564 134.618 96.67 134.446 97.5064C134.274 98.3428 133.885 99.1454 133.278 99.8919C132.521 100.822 131.634 101.463 130.603 101.804C129.573 102.146 128.488 102.178 127.315 101.895C126.154 101.622 125.028 101.031 123.927 100.135C122.825 99.2385 122.005 98.246 121.477 97.1451C120.949 96.0441 120.737 94.9556 120.847 93.8452C120.969 92.7447 121.382 91.7377 122.129 90.8198C122.736 90.0733 123.443 89.5296 124.251 89.211C125.048 88.8825 125.867 88.7759 126.676 88.9059L125.159 87.671L127.718 84.5257ZM132.278 94.5215C132.078 93.6672 131.486 92.8195 130.47 91.993C129.454 91.1664 128.514 90.7471 127.615 90.7273C126.738 90.7053 125.971 91.0981 125.333 91.8814C124.696 92.6647 124.479 93.5056 124.684 94.4043C124.888 95.303 125.502 96.1484 126.494 96.955C127.497 97.7716 128.435 98.1687 129.31 98.1686C130.185 98.1684 130.952 97.7756 131.609 96.9678C132.237 96.1968 132.478 95.3758 132.278 94.5215Z" fill="white"/>
<path d="M109.871 128.608L106.654 132.561L98.3424 132.876L103.189 136.82L100.56 140.051L84.8333 127.254L87.4623 124.023L97.0207 131.801L95.6884 123.963L98.8353 120.096L100.29 128.908L109.871 128.608Z" fill="white"/>
<path d="M140.574 90.5545C141.36 89.588 141.214 88.1668 140.248 87.3803C139.281 86.5939 137.86 86.7398 137.074 87.7064C136.287 88.673 136.433 90.0941 137.4 90.8806C138.366 91.6671 139.787 91.5211 140.574 90.5545Z" fill="white"/>
<path d="M94.4699 39.2855C93.6599 38.6061 92.4412 37.8789 91.1152 37.3085C89.9193 36.8033 88.6904 36.4136 87.4032 36.2206C86.9257 36.1575 86.6201 36.4581 86.4821 36.7526C86.2989 37.1528 86.5335 37.6895 86.9612 37.8137C87.239 37.8974 87.5145 37.9588 87.79 38.0202C89.6617 38.4448 91.3955 39.1639 92.9484 40.3054C94.8027 41.6515 96.3391 43.2882 97.3793 45.3347C97.6315 45.8247 97.8416 46.3415 98.1061 46.8415C98.3606 47.3537 99.0225 47.4651 99.42 47.0766C99.6138 46.8885 99.7487 46.6727 99.6524 46.391C99.583 46.1514 99.5257 45.9218 99.4241 45.6967C98.3995 43.256 96.884 41.1685 94.4699 39.2855ZM92.4373 42.2085C92.0525 41.9565 91.6754 41.6699 91.2806 41.4301C89.8661 40.5436 88.3082 40.0082 86.6767 39.7384C86.3002 39.6762 86.0375 39.8489 85.8429 40.1381C85.5908 40.5229 85.6914 41.1743 86.2569 41.3293C86.488 41.3953 86.7191 41.4613 86.9379 41.5173C88.1998 41.7914 89.3689 42.2546 90.4721 42.9488C91.8277 43.8077 92.9497 44.9037 93.7761 46.2881C94.143 46.9121 94.4479 47.5874 94.7949 48.2359C94.8652 48.3745 94.9478 48.523 95.0679 48.6004C95.3693 48.805 95.6946 48.8052 96.0016 48.6278C96.3186 48.4383 96.4122 48.1483 96.3435 47.8076C96.2962 47.5657 96.2245 47.3039 96.1229 47.0789C95.2961 45.145 94.065 43.533 92.4373 42.2085ZM90.3572 45.2149C89.1265 44.1525 87.7416 43.5545 86.2134 43.3077C86.0412 43.2693 85.8613 43.2654 85.696 43.2936C85.363 43.3278 85.0153 43.6551 84.9784 43.9505C84.9153 44.4281 85.0804 44.7251 85.4982 44.8617C85.766 44.9575 86.0637 45.0167 86.3392 45.0781C88.2943 45.5502 89.8059 46.6174 90.8142 48.3532C91.0596 48.7766 91.2628 49.2268 91.4883 49.6747C91.5586 49.8133 91.6411 49.9618 91.749 50.0292C92.0382 50.2239 92.3734 50.2118 92.6705 50.0467C92.9676 49.8816 93.1155 49.5748 93.0591 49.2442C93.0332 49.101 92.9828 48.938 92.9347 48.7971C92.3823 47.3509 91.5597 46.112 90.3572 45.2149ZM87.045 49.1105C87.6011 49.502 87.9689 50.025 88.1805 50.665C88.2309 50.8281 88.3034 50.9888 88.386 51.1374C88.5756 51.4544 88.9367 51.5855 89.3417 51.4878C89.6701 51.4092 89.8991 51.1277 89.8971 50.7803C89.8942 50.5338 89.8691 50.2897 89.7897 50.0623C89.2963 48.6437 88.341 47.6427 86.9761 47.0203C86.3525 46.7366 85.686 46.5808 85.0056 46.6171C84.5815 46.6382 84.3203 46.9342 84.2726 47.3429C84.2394 47.7837 84.4779 48.1405 84.8911 48.2326C85.0289 48.2634 85.1789 48.304 85.3143 48.3125C85.974 48.4018 86.5509 48.6678 87.045 49.1105Z" fill="white"/>
<path d="M94.47 39.2869C96.8842 41.1698 98.3996 43.2573 99.4365 45.708C99.5381 45.933 99.5953 46.1627 99.6648 46.4023C99.7488 46.6741 99.6262 46.8998 99.4324 47.0879C99.0127 47.4787 98.3607 47.355 98.1185 46.8528C97.8762 46.3505 97.6561 45.846 97.3917 45.346C96.3393 43.2895 94.8151 41.6628 92.9608 40.3167C91.398 39.1875 89.6642 38.4683 87.8024 38.0315C87.5269 37.9701 87.2491 37.8864 86.9736 37.825C86.5459 37.7007 86.3113 37.164 86.4945 36.7639C86.6325 36.4693 86.9381 36.1688 87.4156 36.2319C88.7028 36.4249 89.9317 36.8146 91.1276 37.3198C92.4513 37.868 93.66 38.6074 94.47 39.2869Z" fill="white"/>
<path d="M92.4372 42.2105C94.0527 43.5251 95.306 45.1347 96.1304 47.0464C96.2321 47.2715 96.3038 47.5333 96.3511 47.7752C96.4198 48.1158 96.3162 48.4181 96.0092 48.5954C95.6922 48.785 95.3646 48.7626 95.0755 48.568C94.9553 48.4906 94.8728 48.342 94.8025 48.2035C94.4555 47.555 94.1628 46.8897 93.7837 46.2557C92.9473 44.8835 91.8376 43.7975 90.4797 42.9163C89.3765 42.2221 88.2074 41.759 86.9455 41.4849C86.7167 41.4411 86.4833 41.3529 86.2645 41.2969C85.7112 41.1518 85.5984 40.4905 85.8505 40.1057C86.0551 39.8043 86.3077 39.6437 86.6843 39.706C88.338 39.9735 89.8837 40.4989 91.2882 41.3977C91.6653 41.6842 92.0524 41.9585 92.4372 42.2105Z" fill="white"/>
<path d="M90.3564 45.214C91.5467 46.1011 92.3816 47.35 92.9439 48.7839C93.0042 48.9347 93.0523 49.0756 93.0683 49.231C93.1247 49.5617 92.989 49.8784 92.6797 50.0336C92.3726 50.2109 92.0474 50.2107 91.7582 50.0161C91.6381 49.9387 91.5655 49.7779 91.4975 49.6615C91.262 49.2259 91.0687 48.7635 90.8234 48.34C89.8151 46.6042 88.3035 45.537 86.3483 45.0649C86.0606 44.9935 85.7851 44.9321 85.5074 44.8485C85.0773 44.702 84.9245 44.4149 84.9876 43.9373C85.0345 43.6297 85.36 43.3047 85.7052 43.2804C85.8828 43.2622 86.0527 43.2784 86.2226 43.2946C87.7531 43.5635 89.1257 44.1515 90.3564 45.214Z" fill="white"/>
<path d="M87.0443 49.1121C86.5602 48.6572 85.9733 48.4034 85.3159 48.3363C85.1682 48.3179 85.0305 48.2872 84.8927 48.2564C84.4895 48.1521 84.241 47.8075 84.2742 47.3666C84.3097 46.948 84.5831 46.662 85.0072 46.6408C85.6976 46.5924 86.3541 46.7604 86.9777 47.0441C88.3526 47.6543 89.2979 48.6675 89.7913 50.0861C89.8707 50.3135 89.908 50.5676 89.8987 50.8041C89.8907 51.1638 89.6717 51.433 89.3433 51.5116C88.9383 51.6093 88.5649 51.4682 88.3876 51.1612C88.305 51.0127 88.2324 50.8519 88.182 50.6888C87.9682 50.0266 87.5905 49.5159 87.0443 49.1121Z" fill="white"/>
<path d="M54.0144 52.159L58.3065 46.8841L53.6673 47.3607L54.0144 52.159Z" fill="#40146F"/>
<g opacity="0.7">
<path opacity="0.7" d="M89.4655 63.4916L70.4956 48.056C69.5043 47.2494 68.0492 47.3877 67.2625 48.3545L57.8618 59.9078C57.0651 60.8869 57.2477 62.3374 58.2268 63.1341L77.1967 78.5696C78.1881 79.3763 79.6431 79.238 80.4298 78.2712L89.8306 66.7179C90.6173 65.751 90.4568 64.2982 89.4655 63.4916Z" fill="#ECC581"/>
<path opacity="0.7" d="M70.4258 48.1403L89.3957 63.5759C90.338 64.3427 90.4794 65.7189 89.7425 66.6246L80.3417 78.1779C79.6048 79.0835 78.2286 79.2249 77.2862 78.4581L58.3163 63.0225C57.3862 62.2657 57.2226 60.8917 57.9695 59.9738L67.3702 48.4206C68.0949 47.5049 69.4711 47.3636 70.4258 48.1403Z" stroke="#C08329" stroke-opacity="0.3" stroke-width="0.5"/>
</g>
<path d="M67.6367 52.7476C68.8318 51.2789 71.0094 51.0777 72.5025 52.2926L75.2072 54.4934L76.3624 53.0737L70.292 48.1344C69.3741 47.3875 68.0301 47.5143 67.3031 48.4078L64.6243 51.7L66.9129 53.5622L67.6 52.7177L67.6367 52.7476Z" fill="#ECC581"/>
<path d="M67.5254 52.6574L66.908 53.4162L64.803 51.7034L67.4021 48.5091C68.0893 47.6646 69.3667 47.5446 70.2234 48.2417L76.1959 53.1014L75.2001 54.3253L72.581 52.1942C71.0634 50.9593 68.8713 51.1284 67.6174 52.5695L67.6051 52.5595L67.5254 52.6574V52.6574Z" stroke="#C08329" stroke-opacity="0.3" stroke-width="0.5"/>
<path d="M79.9371 73.8C78.7421 75.2687 76.5645 75.4699 75.0713 74.255L72.3666 72.0542L71.2114 73.4739L77.2818 78.4133C78.1997 79.1601 79.5438 79.0333 80.2707 78.1399L82.9495 74.8477L80.6609 72.9854L79.9738 73.8299L79.9371 73.8Z" fill="#ECC581"/>
<path d="M80.0464 73.8893L80.6638 73.1305L82.7689 74.8434L80.1697 78.0376C79.4826 78.8821 78.2051 79.0021 77.3484 78.305L71.376 73.4453L72.3818 72.2092L75.0008 74.3403C76.5184 75.5752 78.7106 75.4061 79.9645 73.965L79.9767 73.975L80.0464 73.8893Z" stroke="#C08329" stroke-opacity="0.3" stroke-width="0.5"/>
<path d="M62.7972 64.2686C61.3041 63.0537 61.0585 60.8806 62.2535 59.412L62.9406 58.5675L60.652 56.7053L57.9732 59.9975C57.2462 60.8909 57.3952 62.2327 58.3131 62.9796L64.3835 67.919L65.5387 66.4993L62.7972 64.2686Z" fill="#ECC581"/>
<path d="M62.1547 59.3322C60.9199 60.8498 61.1747 63.1116 62.7167 64.3664L65.348 66.5074L64.3422 67.7435L58.3698 62.8838C57.5008 62.1768 57.3709 60.9115 58.058 60.0671L60.6571 56.8728L62.7622 58.5856L62.1547 59.3322Z" stroke="#C08329" stroke-opacity="0.3" stroke-width="0.5"/>
<path d="M84.7883 62.2893C86.2814 63.5042 86.5271 65.6772 85.3321 67.1459L84.6449 67.9903L86.9336 69.8526L89.6124 66.5604C90.3393 65.667 90.1903 64.3252 89.2724 63.5783L83.202 58.6389L82.0468 60.0586L84.7883 62.2893Z" fill="#ECC581"/>
<path d="M85.4172 67.2145C86.652 65.6969 86.3972 63.4351 84.8552 62.1804L82.2238 60.0393L83.2296 58.8032L89.2021 63.6629C90.071 64.37 90.201 65.6352 89.5139 66.4797L86.9147 69.6739L84.8097 67.9611L85.4172 67.2145V67.2145Z" stroke="#C08329" stroke-opacity="0.3" stroke-width="0.5"/>
<path d="M68.4575 62.8328L72.2716 58.1454L66.8988 53.7736L64.5367 51.8517L60.7227 56.5391L63.0847 58.461L68.4575 62.8328Z" fill="#ECC581"/>
<path d="M66.8302 53.8614L72.1051 58.1535L68.4404 62.6573L63.1655 58.3653L60.9014 56.5229L64.5661 52.0191L66.8302 53.8614Z" stroke="#C08329" stroke-opacity="0.3" stroke-width="0.5"/>
<path d="M79.1237 63.7003L75.3096 68.3877L80.6579 72.7395L83.0322 74.6715L86.8462 69.9841L84.4719 68.0521L79.1237 63.7003Z" fill="#ECC581"/>
<path d="M80.7275 72.6537L75.4648 68.3716L79.1295 63.8678L84.3922 68.1499L86.6808 70.0121L83.0161 74.5159L80.7275 72.6537Z" stroke="#C08329" stroke-opacity="0.3" stroke-width="0.5"/>
<path d="M64.481 67.9995L71.0654 73.3571L72.2205 71.9375L71.7565 65.7829L65.6361 66.5798L64.481 67.9995Z" fill="#ECC581"/>
<path d="M72.0929 71.8937L71.0473 73.1787L64.6465 67.9705L65.6921 66.6854L71.6349 65.9067L72.0929 71.8937Z" stroke="#C08329" stroke-opacity="0.3" stroke-width="0.5"/>
<path d="M75.8398 60.766L81.9602 59.969L83.1154 58.5493L76.531 53.1917L75.3758 54.6114L75.8398 60.766Z" fill="#ECC581"/>
<path d="M82.9369 58.5652L81.8913 59.8502L75.9484 60.6289L75.5027 54.6519L76.5483 53.3669L82.9369 58.5652Z" stroke="#C08329" stroke-opacity="0.3" stroke-width="0.5"/>
<path d="M72.4262 52.4334C71.0187 51.2882 68.9299 51.4803 67.8046 52.8633L67.1175 53.7078L72.4658 58.0596C72.5025 58.0895 72.4971 58.1461 72.4772 58.1706L68.5536 62.9926C68.5237 63.0293 68.467 63.0239 68.4426 63.004L63.0943 58.6522L62.4071 59.4967C61.2818 60.8796 61.5184 62.9639 62.9258 64.1091L65.7162 66.3796L71.8466 65.5704C71.9132 65.5636 71.9621 65.6034 71.9445 65.6501L72.3985 71.8169L75.189 74.0874C76.5964 75.2327 78.6852 75.0405 79.8105 73.6575L80.4976 72.8131L75.1494 68.4612C75.1126 68.4314 75.118 68.3747 75.1379 68.3503L79.0616 63.5282C79.0914 63.4915 79.1481 63.4969 79.1726 63.5168L84.5208 67.8687L85.208 67.0242C86.3333 65.6412 86.0967 63.557 84.6893 62.4118L81.8989 60.1412L75.7685 60.9504C75.7463 60.9527 75.7219 60.9328 75.7096 60.9228C75.6974 60.9129 75.6729 60.893 75.6706 60.8708L75.2166 54.7039L72.4262 52.4334Z" fill="#ECC581"/>
<path d="M85.1116 66.9652L84.4942 67.724L79.2316 63.4419C79.1826 63.4021 79.126 63.3967 79.0816 63.4012C79.0372 63.4058 78.9829 63.4226 78.943 63.4715L75.0194 68.2936C74.9796 68.3425 74.9742 68.3991 74.9787 68.4435C74.9833 68.4879 75.0001 68.5423 75.049 68.5821L80.3117 72.8642L79.6942 73.623C78.6088 74.9571 76.5866 75.1424 75.2281 74.037L72.4744 71.7963L72.0272 65.6961C72.0425 65.6272 72.0035 65.5751 71.9546 65.5353C71.9056 65.4955 71.849 65.4901 71.7924 65.4847L65.7064 66.2893L62.9527 64.0487C61.5942 62.9433 61.3645 60.9256 62.45 59.5916L63.0674 58.8328L68.33 63.1149C68.379 63.1548 68.4356 63.1602 68.48 63.1556C68.5244 63.151 68.5788 63.1343 68.6186 63.0853L72.5422 58.2633C72.582 58.2143 72.5874 58.1577 72.5829 58.1133C72.5783 58.0689 72.5615 58.0145 72.5126 57.9747L67.2499 53.6926L67.8674 52.9338C68.9528 51.5998 70.9751 51.4145 72.3335 52.5199L75.0872 54.7605L75.5367 60.8829C75.5558 60.9595 75.6048 60.9993 75.617 61.0093C75.6415 61.0292 75.6904 61.069 75.757 61.0622L81.843 60.2576L84.5967 62.4982C85.9674 63.6136 86.1971 65.6312 85.1116 66.9652Z" stroke="#C08329" stroke-opacity="0.3" stroke-width="0.5"/>
<path d="M205.542 144.66L186.73 167.778L188.04 168.844L206.851 145.725L205.542 144.66Z" fill="#00CAF5"/>
<path d="M186.732 167.781L167.751 191.108L169.061 192.173L188.042 168.847L186.732 167.781Z" fill="#FFC700"/>
<path d="M149.147 213.967C150.573 213.866 151.961 213.185 152.927 211.998L169.059 192.171L167.75 191.106L149.147 213.967Z" fill="#40146F"/>
</g>
<defs>
<filter id="filter0_d" x="0.407227" y="0.0778809" width="258.201" height="243.054" filterUnits="userSpaceOnUse" color-interpolation-filters="sRGB">
<feFlood flood-opacity="0" result="BackgroundImageFix"/>
<feColorMatrix in="SourceAlpha" type="matrix" values="0 0 0 0 0 0 0 0 0 0 0 0 0 0 0 0 0 0 127 0"/>
<feOffset dx="20" dy="15"/>
<feGaussianBlur stdDeviation="6"/>
<feColorMatrix type="matrix" values="0 0 0 0 0.25098 0 0 0 0 0.0980392 0 0 0 0 0.427451 0 0 0 0.1 0"/>
<feBlend mode="normal" in2="BackgroundImageFix" result="effect1_dropShadow"/>
<feBlend mode="normal" in="SourceGraphic" in2="effect1_dropShadow" result="shape"/>
</filter>
</defs>
</svg>
