<svg width="157" height="16" fill="none"><path d="M.968 4.168h2.629c1.254 0 2.222.341 2.904 1.023.69.675 1.034 1.635 1.034 2.882 0 1.254-.345 2.222-1.034 2.904C5.819 11.659 4.851 12 3.597 12H.968V4.168Zm2.574 7.062c1.012 0 1.771-.264 2.277-.792.513-.528.77-1.316.77-2.365 0-2.09-1.016-3.135-3.047-3.135H1.87v6.292h1.672Zm10.154-2.024H9.637c.007.704.169 1.236.484 1.595.323.36.788.539 1.397.539.645 0 1.24-.216 1.782-.649l.297.649a2.573 2.573 0 0 1-.935.539 3.446 3.446 0 0 1-1.155.198c-.865 0-1.544-.253-2.035-.759-.491-.513-.737-1.214-.737-2.101 0-.565.11-1.063.33-1.496.22-.44.528-.781.924-1.023a2.542 2.542 0 0 1 1.353-.363c.733 0 1.309.242 1.727.726.418.477.627 1.137.627 1.98v.165Zm-2.343-2.178c-.462 0-.84.14-1.133.418-.286.279-.47.671-.55 1.177h3.223c-.044-.52-.198-.917-.462-1.188-.257-.271-.616-.407-1.078-.407Zm6.456-.693c.484 0 .913.121 1.287.363.374.242.664.583.87 1.023.205.433.307.935.307 1.507 0 .572-.102 1.074-.308 1.507a2.337 2.337 0 0 1-.869.99c-.366.235-.795.352-1.287.352-.432 0-.81-.095-1.133-.286a1.85 1.85 0 0 1-.737-.814v3.399h-.89V8.018c0-.572-.03-1.089-.089-1.551h.847l.088 1.067c.154-.381.396-.675.726-.88.338-.213.734-.319 1.188-.319Zm-.165 5.005c.543 0 .961-.183 1.254-.55.301-.367.451-.887.451-1.562s-.15-1.199-.45-1.573c-.301-.381-.72-.572-1.255-.572-.55 0-.971.183-1.265.55-.293.367-.44.891-.44 1.573 0 .682.147 1.21.44 1.584.294.367.715.55 1.265.55Zm6.288.737c-.52 0-.979-.117-1.375-.352a2.395 2.395 0 0 1-.924-1.001c-.212-.433-.319-.939-.319-1.518 0-.58.107-1.085.32-1.518.22-.433.527-.766.923-1.001.396-.235.855-.352 1.375-.352s.98.117 1.375.352c.396.235.7.568.913 1.001.22.433.33.939.33 1.518 0 .58-.11 1.085-.33 1.518a2.325 2.325 0 0 1-.913 1.001c-.396.235-.854.352-1.375.352Zm0-.737c.55 0 .972-.18 1.265-.539.294-.367.44-.898.44-1.595 0-.675-.15-1.195-.45-1.562-.302-.374-.72-.561-1.255-.561-.542 0-.964.187-1.265.561-.3.367-.45.887-.45 1.562 0 .697.146 1.228.44 1.595.3.36.725.539 1.275.539Zm5.877.737c-.931 0-1.668-.238-2.21-.715l.296-.66c.3.235.605.403.913.506.308.103.653.154 1.034.154.418 0 .733-.07.946-.209a.71.71 0 0 0 .33-.627.676.676 0 0 0-.22-.528c-.147-.132-.389-.235-.726-.308l-.935-.22c-.462-.103-.821-.286-1.078-.55a1.33 1.33 0 0 1-.374-.946c0-.484.194-.876.583-1.177.389-.308.902-.462 1.54-.462.389 0 .755.062 1.1.187.345.125.634.304.87.539l-.298.649c-.52-.433-1.078-.649-1.672-.649-.396 0-.704.077-.924.231a.716.716 0 0 0-.319.627c0 .227.066.407.198.539.14.132.36.235.66.308l.935.231c.513.117.895.3 1.144.55.25.242.374.561.374.957 0 .477-.194.858-.583 1.144-.389.286-.917.429-1.584.429ZM33.396 12V6.467h.891V12h-.89Zm-.088-7.876h1.09v1.012h-1.09V4.124Zm3.897 3.047v3.025c0 .41.084.7.253.869.169.161.407.242.715.242.206 0 .404-.033.594-.099v.759c-.227.073-.484.11-.77.11-.528 0-.942-.147-1.243-.44-.293-.3-.44-.74-.44-1.32V7.171h-1.078v-.704h1.078V5.048l.891-.319v1.738h1.584v.704h-1.584Zm4.528 4.906c-.931 0-1.668-.238-2.211-.715l.297-.66c.3.235.605.403.913.506.308.103.653.154 1.034.154.418 0 .733-.07.946-.209a.71.71 0 0 0 .33-.627.676.676 0 0 0-.22-.528c-.147-.132-.389-.235-.726-.308l-.935-.22c-.462-.103-.822-.286-1.078-.55a1.33 1.33 0 0 1-.374-.946c0-.484.194-.876.583-1.177.389-.308.902-.462 1.54-.462.389 0 .755.062 1.1.187.344.125.634.304.869.539l-.297.649c-.52-.433-1.078-.649-1.672-.649-.396 0-.704.077-.924.231a.716.716 0 0 0-.32.627c0 .227.067.407.199.539.14.132.36.235.66.308l.935.231c.513.117.895.3 1.144.55.25.242.374.561.374.957 0 .477-.194.858-.583 1.144-.389.286-.917.429-1.584.429ZM48.298 12V4.168h.902V12h-.902Zm5.487-5.665c1.327 0 1.991.73 1.991 2.189V12h-.891V8.568c0-.513-.103-.887-.308-1.122-.205-.242-.528-.363-.968-.363-.513 0-.924.158-1.232.473-.308.315-.462.74-.462 1.276V12h-.891V8.018c0-.572-.03-1.089-.088-1.551h.847l.088.99c.169-.36.422-.634.759-.825a2.239 2.239 0 0 1 1.155-.297Zm5.544 5.742c-.932 0-1.669-.238-2.211-.715l.297-.66c.3.235.605.403.913.506.308.103.652.154 1.034.154.418 0 .733-.07.946-.209a.71.71 0 0 0 .33-.627.675.675 0 0 0-.22-.528c-.147-.132-.39-.235-.726-.308l-.935-.22c-.462-.103-.822-.286-1.078-.55a1.33 1.33 0 0 1-.374-.946c0-.484.194-.876.583-1.177.388-.308.902-.462 1.54-.462.388 0 .755.062 1.1.187.344.125.634.304.869.539l-.297.649c-.521-.433-1.078-.649-1.672-.649-.396 0-.704.077-.924.231a.716.716 0 0 0-.32.627c0 .227.067.407.199.539.139.132.359.235.66.308l.935.231c.513.117.894.3 1.144.55.249.242.374.561.374.957 0 .477-.195.858-.583 1.144-.39.286-.917.429-1.584.429Zm8.218-5.61V12h-.87v-.957a1.824 1.824 0 0 1-.736.77 2.151 2.151 0 0 1-1.067.264c-.653 0-1.148-.183-1.485-.55-.338-.367-.506-.91-.506-1.628V6.467h.89v3.41c0 .499.103.865.309 1.1.205.235.517.352.935.352.491 0 .887-.158 1.188-.473.3-.323.45-.744.45-1.265V6.467h.892Zm4.291-.132c.184 0 .352.022.506.066l-.022.814a1.772 1.772 0 0 0-.583-.088c-.535 0-.935.169-1.199.506-.256.33-.385.733-.385 1.21V12h-.89V8.018c0-.572-.03-1.089-.089-1.551h.847l.088 1.023c.14-.374.363-.66.671-.858a1.91 1.91 0 0 1 1.056-.297Zm5.935 2.871h-4.059c.008.704.169 1.236.484 1.595.323.36.789.539 1.397.539.645 0 1.24-.216 1.782-.649l.297.649a2.574 2.574 0 0 1-.935.539 3.446 3.446 0 0 1-1.155.198c-.865 0-1.544-.253-2.035-.759-.491-.513-.737-1.214-.737-2.101 0-.565.11-1.063.33-1.496.22-.44.528-.781.924-1.023a2.542 2.542 0 0 1 1.353-.363c.734 0 1.31.242 1.727.726.418.477.627 1.137.627 1.98v.165ZM75.43 7.028c-.462 0-.84.14-1.133.418-.286.279-.47.671-.55 1.177h3.223c-.044-.52-.198-.917-.462-1.188-.257-.271-.616-.407-1.078-.407ZM84 3.904V12h-.88v-1.001a1.777 1.777 0 0 1-.737.803c-.323.183-.7.275-1.133.275-.484 0-.913-.121-1.287-.363a2.426 2.426 0 0 1-.858-1.012c-.206-.44-.308-.946-.308-1.518 0-.572.099-1.07.297-1.496.205-.433.495-.766.869-1.001a2.37 2.37 0 0 1 1.287-.352c.432 0 .81.095 1.133.286.322.183.564.444.726.781V3.904h.89Zm-2.574 7.436c.542 0 .96-.183 1.254-.55.293-.374.44-.902.44-1.584 0-.675-.147-1.195-.44-1.562-.294-.374-.712-.561-1.254-.561-.543 0-.968.183-1.276.55-.301.367-.451.884-.451 1.551 0 .682.15 1.214.45 1.595.309.374.734.561 1.277.561Zm9.925-5.005c.484 0 .913.117 1.287.352.374.235.664.568.87 1.001.205.425.307.924.307 1.496s-.102 1.078-.308 1.518c-.205.433-.495.77-.869 1.012a2.316 2.316 0 0 1-1.287.363c-.432 0-.81-.095-1.133-.286a1.85 1.85 0 0 1-.737-.814V12h-.89V3.904h.89v3.542c.162-.36.404-.634.726-.825.33-.19.712-.286 1.144-.286Zm-.165 5.005c.536 0 .954-.187 1.254-.561.301-.381.451-.913.451-1.595 0-.667-.15-1.184-.45-1.551-.294-.367-.712-.55-1.255-.55-.55 0-.971.183-1.265.55-.293.367-.44.891-.44 1.573 0 .682.147 1.21.44 1.584.294.367.715.55 1.265.55Zm8.798-4.873-2.585 6.039c-.272.63-.613 1.093-1.023 1.386-.411.293-.917.495-1.518.605l-.187-.693c.52-.117.913-.275 1.177-.473.271-.19.495-.488.67-.891l.22-.495-2.342-5.478h.935l1.87 4.565 1.892-4.565h.89Z" fill="#979797"/></svg>