<svg xmlns="http://www.w3.org/2000/svg" width="259" height="244" fill="none"><g filter="url(#a)"><path d="m222.095 118.413.002.002a4.887 4.887 0 0 1 .717 6.896l-70.236 86.319a4.894 4.894 0 0 1-6.888.708L4.908 97.786a4.894 4.894 0 0 1-.707-6.888L74.438 4.58a4.894 4.894 0 0 1 6.888-.707l140.769 114.541Z" fill="#3FD387" stroke="#41BC7B"/><path opacity=".15" d="M79.968 2.367a5.377 5.377 0 0 0-5.788 1.738L38.847 47.528l19.85 94.427 59.64 48.527 53.5-1.727 41.417-50.901-104.095 3.358L79.968 2.367ZM3.813 90.583a5.394 5.394 0 0 0 .78 7.591l32.518 26.46-23.39-46.229-9.908 12.178Z" fill="#EEE"/><path d="m107.911 108.869 10.697 8.704-2.52 3.096-1.566-1.274c.284.801.354 1.59.199 2.379-.154.79-.505 1.522-1.073 2.219-1.085 1.334-2.269 2.039-3.553 2.092-1.285.054-2.68-.532-4.185-1.757l-6.376-5.188 2.589-3.182 6.437 5.238c1.298 1.056 2.394 1.033 3.301-.081.537-.661.755-1.379.631-2.151-.124-.772-.542-1.458-1.277-2.056l-5.935-4.83 2.619-3.219.012.01ZM112.937 92.718l15.58 12.677-2.56 3.146-1.579-1.285c.292.766.342 1.58.17 2.416-.172.837-.561 1.639-1.168 2.386-.747.918-1.637 1.536-2.702 1.87-1.052.344-2.173.347-3.346.064-1.186-.294-2.312-.885-3.413-1.781-1.102-.896-1.909-1.879-2.413-2.96-.504-1.081-.704-2.159-.592-3.248.125-1.078.56-2.087 1.317-3.017.587-.722 1.262-1.251 2.046-1.59.784-.338 1.578-.465 2.376-.345l-6.315-5.139 2.599-3.194Zm9.43 13.96c-.199-.855-.803-1.712-1.819-2.539-1.004-.817-1.954-1.224-2.841-1.233-.887-.01-1.644.37-2.272 1.141-.637.784-.866 1.615-.686 2.493.18.879.77 1.705 1.749 2.501 1.016.827 1.978 1.244 2.877 1.264.91.007 1.689-.376 2.326-1.159.638-.783.856-1.602.666-2.468ZM127.718 84.526l10.697 8.703-2.56 3.146-1.579-1.285c.292.766.342 1.58.17 2.416-.172.837-.561 1.64-1.168 2.386-.757.93-1.644 1.571-2.675 1.912-1.03.342-2.115.374-3.288.091-1.161-.273-2.287-.864-3.388-1.76-1.102-.897-1.922-1.889-2.45-2.99-.528-1.1-.74-2.19-.63-3.3a5.685 5.685 0 0 1 1.282-3.025c.607-.747 1.314-1.29 2.122-1.609.797-.329 1.616-.435 2.425-.305l-1.517-1.235 2.559-3.145Zm4.56 9.996c-.2-.855-.792-1.703-1.808-2.529-1.016-.827-1.956-1.246-2.855-1.266-.877-.022-1.644.371-2.282 1.154-.637.784-.854 1.625-.649 2.523.204.899.818 1.744 1.81 2.551 1.003.817 1.941 1.214 2.816 1.214.875 0 1.642-.393 2.299-1.201.628-.771.869-1.592.669-2.447ZM109.871 128.608l-3.217 3.953-8.312.315 4.847 3.944-2.629 3.231-15.727-12.797 2.63-3.231 9.558 7.778-1.333-7.838 3.147-3.867 1.455 8.812 9.581-.3ZM140.574 90.555a2.257 2.257 0 1 0-3.503-2.848 2.257 2.257 0 0 0 3.503 2.848ZM94.47 39.285c-.81-.679-2.029-1.406-3.355-1.976-1.196-.506-2.425-.895-3.712-1.088-.477-.063-.783.237-.92.532-.184.4.05.937.478 1.06.278.084.553.146.829.207 1.872.425 3.605 1.144 5.158 2.285 1.855 1.346 3.391 2.983 4.431 5.03.252.49.463 1.007.727 1.507a.822.822 0 0 0 1.314.235c.194-.188.329-.404.232-.686-.069-.24-.126-.47-.228-.694-1.025-2.441-2.54-4.529-4.954-6.412Zm-2.033 2.924c-.385-.253-.762-.54-1.156-.779-1.415-.886-2.973-1.422-4.604-1.692-.377-.062-.64.11-.834.4-.252.385-.152 1.036.414 1.191.231.066.462.132.68.188a10.88 10.88 0 0 1 3.535 1.432c1.356.859 2.478 1.955 3.304 3.34.367.623.672 1.298 1.019 1.947.07.139.153.287.273.364.301.205.627.205.934.028.317-.19.41-.48.342-.82a3.408 3.408 0 0 0-.221-.73 12.545 12.545 0 0 0-3.686-4.87Zm-2.08 3.006c-1.23-1.063-2.615-1.66-4.144-1.907a1.357 1.357 0 0 0-.517-.014c-.333.034-.68.361-.718.657-.063.477.102.774.52.91.268.097.566.156.841.217 1.955.472 3.467 1.54 4.475 3.275.246.424.449.874.674 1.322.07.138.153.287.261.354.29.195.624.183.922.018a.752.752 0 0 0 .388-.803 3.267 3.267 0 0 0-.124-.447c-.553-1.446-1.375-2.685-2.578-3.582Zm-3.312 3.895c.556.392.924.915 1.135 1.555.05.163.123.324.206.472.19.317.55.449.956.35a.713.713 0 0 0 .555-.707 2.253 2.253 0 0 0-.107-.718c-.494-1.418-1.449-2.42-2.814-3.042-.623-.283-1.29-.44-1.97-.403-.424.021-.686.317-.733.726-.034.44.205.797.618.89.138.03.288.071.423.08.66.089 1.237.355 1.731.797Z" fill="#fff"/><path d="M94.47 39.287c2.414 1.883 3.93 3.97 4.966 6.421.102.225.16.455.229.694.084.272-.039.498-.233.686a.823.823 0 0 1-1.314-.235c-.242-.503-.462-1.007-.726-1.507-1.053-2.056-2.577-3.683-4.431-5.03-1.563-1.129-3.297-1.848-5.159-2.285-.275-.06-.553-.145-.828-.206-.428-.124-.663-.661-.48-1.061.138-.295.444-.595.922-.532 1.287.193 2.516.583 3.712 1.088 1.323.548 2.532 1.287 3.342 1.967Z" fill="#fff"/><path d="M92.437 42.21c1.616 1.315 2.869 2.925 3.693 4.836.102.226.174.487.221.73.069.34-.035.642-.342.82a.828.828 0 0 1-.933-.028c-.12-.077-.203-.226-.273-.364-.347-.649-.64-1.314-1.02-1.948-.836-1.373-1.945-2.459-3.303-3.34a10.88 10.88 0 0 0-3.535-1.431c-.228-.044-.462-.132-.68-.188-.554-.145-.667-.806-.415-1.191.205-.302.458-.462.834-.4 1.654.267 3.2.793 4.604 1.692.377.286.764.56 1.15.813ZM90.356 45.214c1.19.887 2.026 2.136 2.588 3.57.06.15.108.292.124.447.057.33-.079.647-.388.803-.307.177-.633.177-.922-.018-.12-.077-.192-.238-.26-.355-.236-.435-.43-.898-.675-1.321-1.008-1.736-2.52-2.803-4.475-3.275-.287-.072-.563-.133-.84-.216-.43-.147-.584-.434-.52-.912.046-.307.372-.632.717-.657.178-.018.348-.002.518.015 1.53.268 2.903.856 4.133 1.919ZM87.044 49.112a2.896 2.896 0 0 0-1.728-.776 4.411 4.411 0 0 1-.423-.08c-.403-.104-.652-.449-.619-.89.036-.418.31-.704.733-.725.69-.049 1.347.12 1.97.403 1.376.61 2.32 1.623 2.814 3.042.08.227.117.482.108.718-.008.36-.227.629-.556.708-.405.097-.778-.044-.955-.35a2.51 2.51 0 0 1-.206-.473 3.074 3.074 0 0 0-1.138-1.577Z" fill="#fff"/><path d="m54.014 52.159 4.292-5.275-4.639.477.347 4.798Z" fill="#40146F"/><g opacity=".7"><path opacity=".7" d="m89.466 63.492-18.97-15.436c-.992-.807-2.447-.668-3.233.299l-9.401 11.553c-.797.979-.614 2.43.365 3.226l18.97 15.436c.991.806 2.446.668 3.233-.299l9.4-11.553c.787-.967.627-2.42-.364-3.226Z" fill="#ECC581"/><path opacity=".7" d="m70.426 48.14 18.97 15.436c.942.767 1.083 2.143.347 3.049l-9.401 11.553c-.737.906-2.113 1.047-3.056.28l-18.97-15.435c-.93-.757-1.093-2.131-.347-3.05l9.401-11.552c.725-.916 2.101-1.057 3.056-.28Z" stroke="#C08329" stroke-opacity=".3" stroke-width=".5"/></g><path d="M67.637 52.748c1.195-1.47 3.372-1.67 4.865-.455l2.705 2.2 1.155-1.42-6.07-4.939c-.918-.746-2.262-.62-2.989.274L64.624 51.7l2.289 1.862.687-.844.037.03Z" fill="#ECC581"/><path d="m67.525 52.657-.617.76-2.105-1.714 2.6-3.194c.686-.844 1.964-.964 2.82-.267l5.973 4.86-.996 1.223-2.619-2.13c-1.518-1.236-3.71-1.067-4.964.374l-.012-.01-.08.098Z" stroke="#C08329" stroke-opacity=".3" stroke-width=".5"/><path d="M79.937 73.8c-1.195 1.469-3.373 1.67-4.866.455l-2.704-2.2-1.156 1.419 6.07 4.94c.919.746 2.263.62 2.99-.274l2.678-3.292-2.288-1.863-.687.845-.037-.03Z" fill="#ECC581"/><path d="m80.046 73.89.618-.76 2.105 1.713-2.6 3.195c-.686.844-1.964.964-2.82.267l-5.973-4.86 1.006-1.236L75 74.34c1.517 1.235 3.71 1.066 4.963-.375l.013.01.07-.086Z" stroke="#C08329" stroke-opacity=".3" stroke-width=".5"/><path d="M62.797 64.269c-1.493-1.215-1.738-3.388-.543-4.857l.687-.844-2.289-1.863-2.679 3.293c-.727.893-.578 2.235.34 2.982l6.07 4.939 1.156-1.42-2.742-2.23Z" fill="#ECC581"/><path d="M62.155 59.332c-1.235 1.518-.98 3.78.562 5.034l2.631 2.141-1.006 1.236-5.972-4.86c-.87-.706-1-1.972-.312-2.816l2.6-3.194 2.104 1.713-.607.746Z" stroke="#C08329" stroke-opacity=".3" stroke-width=".5"/><path d="M84.788 62.29c1.493 1.214 1.74 3.387.544 4.856l-.687.844 2.289 1.863 2.678-3.293c.727-.893.578-2.235-.34-2.982l-6.07-4.94-1.155 1.42 2.741 2.231Z" fill="#ECC581"/><path d="M85.417 67.215c1.235-1.518.98-3.78-.562-5.035l-2.631-2.14 1.006-1.237 5.972 4.86c.869.707.999 1.972.312 2.817l-2.6 3.194-2.104-1.713.607-.746Z" stroke="#C08329" stroke-opacity=".3" stroke-width=".5"/><path d="m68.457 62.833 3.815-4.688-5.373-4.371-2.362-1.922-3.814 4.687 2.362 1.922 5.372 4.372Z" fill="#ECC581"/><path d="m66.83 53.861 5.275 4.293-3.665 4.503-5.274-4.292-2.265-1.842 3.665-4.504 2.264 1.842Z" stroke="#C08329" stroke-opacity=".3" stroke-width=".5"/><path d="m79.124 63.7-3.814 4.688 5.348 4.352 2.374 1.931 3.814-4.687-2.374-1.932-5.348-4.352Z" fill="#ECC581"/><path d="m80.728 72.654-5.263-4.282 3.664-4.504 5.263 4.282 2.289 1.862-3.665 4.504-2.288-1.862Z" stroke="#C08329" stroke-opacity=".3" stroke-width=".5"/><path d="m64.481 68 6.584 5.357 1.156-1.42-.465-6.154-6.12.797L64.481 68Z" fill="#ECC581"/><path d="m72.093 71.894-1.046 1.285-6.4-5.209 1.045-1.285 5.943-.778.458 5.987Z" stroke="#C08329" stroke-opacity=".3" stroke-width=".5"/><path d="m75.84 60.766 6.12-.797 1.155-1.42-6.584-5.357-1.155 1.42.464 6.154Z" fill="#ECC581"/><path d="M82.937 58.565 81.89 59.85l-5.943.779-.445-5.977 1.045-1.285 6.389 5.198Z" stroke="#C08329" stroke-opacity=".3" stroke-width=".5"/><path d="M72.426 52.433c-1.407-1.145-3.496-.953-4.621.43l-.688.845 5.349 4.352c.037.03.031.086.011.11l-3.923 4.823c-.03.036-.087.03-.111.011l-5.349-4.352-.687.845c-1.125 1.383-.889 3.467.519 4.612l2.79 2.27 6.13-.809c.067-.006.116.033.099.08l.454 6.167 2.79 2.27c1.407 1.146 3.496.953 4.622-.43l.687-.844-5.349-4.352c-.036-.03-.031-.086-.011-.11l3.924-4.823c.03-.036.086-.031.11-.011l5.349 4.352.687-.845c1.125-1.383.889-3.467-.519-4.612l-2.79-2.27-6.13.808c-.023.003-.047-.017-.06-.027-.012-.01-.036-.03-.038-.052l-.454-6.167-2.79-2.27Z" fill="#ECC581"/><path d="m85.112 66.965-.618.759-5.262-4.282a.2.2 0 0 0-.15-.04.2.2 0 0 0-.139.07l-3.924 4.822a.2.2 0 0 0-.04.15.2.2 0 0 0 .07.138l5.263 4.282-.618.759c-1.085 1.334-3.107 1.52-4.466.414l-2.754-2.24-.447-6.1c.016-.07-.023-.122-.072-.162-.05-.04-.106-.045-.163-.05l-6.086.804-2.753-2.24c-1.359-1.106-1.589-3.123-.503-4.457l.617-.76 5.263 4.283a.2.2 0 0 0 .15.04.2.2 0 0 0 .139-.07l3.923-4.822a.2.2 0 0 0 .04-.15.2.2 0 0 0-.07-.138l-5.262-4.282.617-.76c1.086-1.333 3.108-1.519 4.466-.413l2.754 2.24.45 6.123c.019.076.068.116.08.126.024.02.073.06.14.053l6.086-.804 2.754 2.24c1.37 1.116 1.6 3.133.515 4.467Z" stroke="#C08329" stroke-opacity=".3" stroke-width=".5"/><path d="m205.542 144.66-18.812 23.118 1.31 1.066 18.811-23.119-1.309-1.065Z" fill="#00CAF5"/><path d="m186.732 167.781-18.981 23.327 1.31 1.065 18.981-23.326-1.31-1.066Z" fill="#FFC700"/><path d="M149.147 213.967a5.37 5.37 0 0 0 3.78-1.969l16.132-19.827-1.309-1.065-18.603 22.861Z" fill="#40146F"/></g><defs><filter id="a" x=".407" y=".078" width="258.201" height="243.054" filterUnits="userSpaceOnUse" color-interpolation-filters="sRGB"><feFlood flood-opacity="0" result="BackgroundImageFix"/><feColorMatrix in="SourceAlpha" values="0 0 0 0 0 0 0 0 0 0 0 0 0 0 0 0 0 0 127 0"/><feOffset dx="20" dy="15"/><feGaussianBlur stdDeviation="6"/><feColorMatrix values="0 0 0 0 0.25098 0 0 0 0 0.0980392 0 0 0 0 0.427451 0 0 0 0.1 0"/><feBlend in2="BackgroundImageFix" result="effect1_dropShadow"/><feBlend in="SourceGraphic" in2="effect1_dropShadow" result="shape"/></filter></defs></svg>